Coordinates
version=1
nRows=6
nColumns=63
inDegrees=yes

Units are S.I. units (second, meters, Newtons, ...)
If the header above contains a line with 'inDegrees', this indicates whether rotational values are in degrees (yes) or radians (no).

endheader
time	pelvis_tilt	pelvis_list	pelvis_rotation	pelvis_tx	pelvis_ty	pelvis_tz	hip_flexion_r	hip_adduction_r	hip_rotation_r	knee_angle_r	knee_angle_r_beta	ankle_angle_r	subtalar_angle_r	mtp_angle_r	hip_flexion_l	hip_adduction_l	hip_rotation_l	knee_angle_l	knee_angle_l_beta	ankle_angle_l	subtalar_angle_l	mtp_angle_l	L5_S1_Flex_Ext	L5_S1_Lat_Bending	L5_S1_axial_rotation	L4_L5_Flex_Ext	L4_L5_Lat_Bending	L4_L5_axial_rotation	L3_L4_Flex_Ext	L3_L4_Lat_Bending	L3_L4_axial_rotation	L2_L3_Flex_Ext	L2_L3_Lat_Bending	L2_L3_axial_rotation	L1_L2_Flex_Ext	L1_L2_Lat_Bending	L1_L2_axial_rotation	L1_T12_Flex_Ext	L1_T12_Lat_Bending	L1_T12_axial_rotation	Abs_r3	Abs_r2	Abs_r1	Abs_t1	Abs_t2	neck_flexion	neck_bending	neck_rotation	arm_flex_r	arm_add_r	arm_rot_r	elbow_flex_r	pro_sup_r	wrist_flex_r	wrist_dev_r	arm_flex_l	arm_add_l	arm_rot_l	elbow_flex_l	pro_sup_l	wrist_flex_l	wrist_dev_l
1.530612	0.397190	-6.928196	92.519128	0.116403	1.018552	0.537842	7.716622	0.591545	4.233328	10.293146	0.179649	30.077650	4.604707	0.000000	4.708227	-4.633929	-6.384011	8.934468	0.155936	34.806618	11.700443	0.000000	-0.121681	0.182748	-2.339132	-0.225974	0.243055	-2.485328	-0.199910	0.444333	-2.485328	-0.139069	0.444333	-2.046741	-0.112993	0.372659	-1.900545	-0.069529	0.283076	-1.754349	-0.869156	2.067281	-13.009552	0.000000	0.000000	-5.207439	8.346688	-5.481855	39.453081	-30.926560	30.944180	92.587814	77.230943	-8.690997	4.447057	38.107012	-9.479191	37.240774	79.425603	84.247318	0.671205	16.242390
1.551020	0.339548	-6.904361	93.049441	0.116130	1.018457	0.537090	7.454594	0.546876	4.357964	10.032528	0.175101	29.951588	3.796166	0.000000	4.809078	-4.535807	-5.555065	9.059637	0.158120	34.843398	11.204792	0.000000	-0.118995	0.173550	-2.405781	-0.220986	0.230822	-2.556142	-0.195497	0.421970	-2.556142	-0.136000	0.421970	-2.105058	-0.110499	0.353903	-1.954697	-0.067994	0.268829	-1.804336	-0.849971	1.963233	-13.380231	0.000000	0.000000	-5.582656	8.485736	-5.056978	39.326591	-30.799339	30.741464	91.632479	79.053752	-8.714088	4.313287	37.934349	-9.660746	36.982544	78.953810	85.471676	0.321817	15.275154
1.571429	0.277099	-6.865645	93.631142	0.115770	1.018393	0.536166	7.125287	0.499721	4.514924	9.719438	0.169636	29.757900	2.803414	0.000000	4.877928	-4.425381	-4.623868	9.158893	0.159853	34.860296	10.649848	0.000000	-0.113457	0.161265	-2.460708	-0.210701	0.214482	-2.614503	-0.186398	0.392100	-2.614503	-0.129670	0.392100	-2.153120	-0.105356	0.328851	-1.999326	-0.064829	0.249799	-1.845531	-0.810410	1.824261	-13.685722	0.000000	0.000000	-5.997652	8.605186	-4.642945	39.090153	-30.783744	30.509278	90.848180	80.675478	-8.791446	4.376386	37.685705	-9.747520	36.730284	78.342383	85.759213	-0.111391	14.350966
1.591837	0.207477	-6.805133	94.244204	0.115361	1.018377	0.535095	6.732782	0.451703	4.717835	9.376769	0.163655	29.490021	1.616136	0.000000	4.903934	-4.301105	-3.595556	9.231201	0.161115	34.852146	10.001810	0.000000	-0.108394	0.146083	-2.507138	-0.201299	0.194291	-2.663834	-0.178081	0.355186	-2.663834	-0.123884	0.355186	-2.193746	-0.100655	0.297893	-2.037049	-0.061936	0.226283	-1.880353	-0.774249	1.652521	-13.943948	0.000000	0.000000	-6.437734	8.676871	-4.204708	38.787423	-30.878564	30.288492	90.264128	82.070616	-8.905422	4.678746	37.393893	-9.785549	36.512417	77.656726	85.380956	-0.679378	13.566549
1.612245	0.126981	-6.715133	94.862849	0.114962	1.018436	0.533922	6.283293	0.403994	4.986411	9.020259	0.157433	29.147266	0.229500	0.000000	4.872948	-4.168217	-2.558236	9.267270	0.161744	34.819486	9.356050	0.000000	-0.106542	0.127822	-2.549971	-0.197859	0.170004	-2.709345	-0.175038	0.310788	-2.709345	-0.121767	0.310788	-2.231225	-0.098935	0.260656	-2.071852	-0.060878	0.197997	-1.912479	-0.761020	1.445953	-14.182176	0.000000	0.000000	-6.887791	8.653143	-3.718845	38.483053	-31.060282	30.134253	89.870904	82.942625	-9.096846	5.201637	37.069086	-9.812142	36.287059	76.913923	84.567618	-1.076698	12.956462
1.632653	0.020109	-6.584198	95.475957	0.114647	1.018599	0.532648	5.764287	0.345051	5.298891	8.642061	0.150832	28.749996	-1.287685	0.000000	4.756840	-4.019146	-1.541123	9.243338	0.161327	34.750100	8.744985	0.000000	-0.110858	0.103807	-2.592540	-0.205875	0.138064	-2.754573	-0.182129	0.252397	-2.754573	-0.126700	0.252397	-2.268472	-0.102943	0.211684	-2.106439	-0.063344	0.160797	-1.944405	-0.791851	1.174289	-14.418928	0.000000	0.000000	-7.320981	8.567376	-3.171042	38.179610	-31.288597	29.981931	89.674000	83.316200	-9.402685	5.999586	36.746336	-9.862300	36.092254	76.153566	83.577612	-1.205191	12.541887
